<?xml version="1.0" encoding="iso-8859-1"?>
<!-- Generator: Adobe Illustrator 19.0.0, SVG Export Plug-In . SVG Version: 6.00 Build 0)  -->
<svg version="1.1" id="Capa_1" xmlns="http://www.w3.org/2000/svg" xmlns:xlink="http://www.w3.org/1999/xlink" x="0px" y="0px"
	 viewBox="0 0 512 512" style="enable-background:new 0 0 512 512;" xml:space="preserve">
<path style="fill:#FF4394;" d="M499.701,239.049l-52.5,15.899l36.899,14.101c-30.901,48.3-85.501,94.499-155.099,153.3
	c-19.501,16.5-41.501,34.2-63.1,53.101c-3.001,2.399-6.301,3.6-9.901,3.6s-6.899-1.201-9.901-3.6
	c-21.599-18.9-42.599-36.601-62.1-53.101c-69.598-58.801-125.199-105-156.099-153.3l38.699-10.8l-54.3-19.2
	C4.2,219.849,0,200.049,0,178.449C0,95.349,58.9,32.95,136,32.95c60.601,0,99.6,41.999,120,79.799
	c20.4-37.8,60.399-79.799,121-79.799c77.1,0,135,62.399,135,145.499C512,200.049,507.8,219.849,499.701,239.049z"/>
<path style="fill:#FF1E7E;" d="M499.701,239.049l-52.5,15.899l36.899,14.101c-30.901,48.3-85.501,94.499-155.099,153.3
	c-19.501,16.5-41.501,34.2-63.1,53.101c-3.001,2.399-6.301,3.6-9.901,3.6V112.749c20.4-37.8,60.399-79.799,121-79.799
	c77.1,0,135,62.399,135,145.499C512,200.049,507.8,219.849,499.701,239.049z"/>
<path style="fill:#E1E4FB;" d="M499.701,239.049c-4.2,10.199-9.3,20.099-15.601,30H377c-5.7,0-10.8-3.3-13.5-8.401L347,227.65
	l-47.5,92.999c-2.701,5.101-7.8,8.401-13.5,8.401s-10.8-3.3-13.5-8.401L256,287.65l-16.5,32.999
	c-5.099,10.201-21.901,10.201-27.001,0L166,227.65l-16.5,32.999c-2.701,5.101-7.8,8.401-13.5,8.401H27.9
	c-6.301-9.901-11.4-19.801-15.601-30H126.7l25.8-51.601c5.099-10.199,21.901-10.199,27.001,0L226,280.45l16.5-33.001
	c2.701-5.099,8.101-7.8,13.5-7.8c5.399,0,10.8,2.701,13.5,7.8L286,280.45l47.5-93.001c5.099-10.199,21.901-10.199,27.001,0
	l25.8,51.601H499.701z"/>
<path style="fill:#C5C9F7;" d="M499.701,239.049c-4.2,10.199-9.3,20.099-15.601,30H377c-5.7,0-10.8-3.3-13.5-8.401L347,227.65
	l-47.5,92.999c-2.701,5.101-7.8,8.401-13.5,8.401s-10.8-3.3-13.5-8.401L256,287.65v-48.001c5.4,0,10.8,2.701,13.5,7.8L286,280.45
	l47.5-93.001c5.099-10.199,21.901-10.199,27.001,0l25.8,51.601H499.701z"/>
<g>
</g>
<g>
</g>
<g>
</g>
<g>
</g>
<g>
</g>
<g>
</g>
<g>
</g>
<g>
</g>
<g>
</g>
<g>
</g>
<g>
</g>
<g>
</g>
<g>
</g>
<g>
</g>
<g>
</g>
</svg>
