<svg id="Capa_1" enable-background="new 0 0 512 512" height="512" viewBox="0 0 512 512" width="512" xmlns="http://www.w3.org/2000/svg"><g><path d="m512 256c0 141.38-114.62 256-256 256s-256-114.62-256-256c0-46.22 12.25-89.57 33.68-127 41.39-72.29 117.02-122.47 204.78-128.41 6.34 15.83 28.74 15.83 35.08 0 87.76 5.94 163.39 56.12 204.78 128.41 21.43 37.43 33.68 80.78 33.68 127z" fill="#81f700"/><path d="m512 256c0 141.38-114.62 256-256 256s-256-114.62-256-256c0-46.22 12.25-89.57 33.68-127 44.12 77.07 127.16 129 222.32 129s178.2-51.93 222.32-129c21.43 37.43 33.68 80.78 33.68 127z" fill="#00cc7f"/><g><g><path d="m348.13 237.67-24.79 24.8-46.71-46.7c-5.69-5.71-13.16-8.55-20.63-8.55s-14.94 2.84-20.63 8.55l-46.71 46.7-24.79-24.8 34.88-34.88c25.44-25.44 39.71-59.92 39.71-95.88v-106.32c5.79-.39 11.64-.59 17.54-.59s11.75.2 17.54.59v106.32c0 35.96 14.27 70.44 39.71 95.88z" fill="#bc0e5c"/><path d="m348.13 237.67-24.79 24.8-46.71-46.7c-5.69-5.71-13.16-8.55-20.63-8.55v-207.22c5.9 0 11.75.2 17.54.59v106.32c0 35.96 14.27 70.44 39.71 95.88z" fill="#a30856"/><g><path d="m214.25 134.392v199.923c0 34.225-22.294 64.447-54.982 74.551l-30.839 9.543-7.368 2.276c-38.969 12.033-78.453-17.09-78.453-57.864v-93.514c0-63.539 34.517-119.003 85.821-148.675 14.018-8.119 29.291-14.298 45.462-18.2 20.578-4.957 40.359 10.777 40.359 31.96z" fill="#fe3244"/><path d="m214.25 134.392v199.923c0 34.225-22.294 64.447-54.982 74.551-15.314 4.739-30.839-6.708-30.839-22.738v-251.06c0-9.278 5.389-17.714 13.809-21.613 10.06-4.658 20.649-8.368 31.653-11.023 20.578-4.957 40.359 10.777 40.359 31.96z" fill="#de1263"/><path d="m469.391 269.308v93.514c0 40.774-39.484 69.897-78.453 57.864l-7.368-2.276-30.839-9.543c-32.689-10.104-54.982-40.326-54.982-74.551v-199.924c0-21.183 19.782-36.916 40.359-31.96 16.171 3.902 31.444 10.081 45.462 18.2 51.305 29.673 85.821 85.137 85.821 148.676z" fill="#de1263"/><path d="m469.391 269.308v93.514c0 40.774-39.484 69.897-78.453 57.864-4.38-1.353-7.368-5.403-7.368-9.988v-270.667c0-8.61 9.823-13.525 16.724-8.376 41.941 31.288 69.097 81.294 69.097 137.653z" fill="#bc0e5c"/></g></g><g><path d="m148.941 300.343c0 2.523-2.042 4.552-4.552 4.552h-20.446l14.463 14.463c1.769 1.769 1.769 4.656 0 6.438-.897.884-2.055 1.327-3.225 1.327-1.158 0-2.328-.442-3.213-1.327l-14.463-14.463v20.446c0 2.419-1.899 4.409-4.292 4.539-.091.013-.169.013-.26.013-2.51 0-4.552-2.042-4.552-4.552v-20.446l-14.45 14.463c-.897.884-2.055 1.327-3.226 1.327-1.158 0-2.328-.442-3.213-1.327-1.782-1.782-1.782-4.669 0-6.438l14.45-14.463h-20.432c-2.523 0-4.552-2.029-4.552-4.552 0-2.51 2.029-4.552 4.552-4.552h20.433l-14.45-14.45c-1.782-1.782-1.782-4.656 0-6.438s4.656-1.782 6.438 0l14.45 14.45v-20.433c0-2.523 2.042-4.552 4.552-4.552.091 0 .169 0 .26.013 2.393.13 4.292 2.107 4.292 4.539v20.433l14.463-14.45c1.769-1.782 4.656-1.782 6.438 0 1.769 1.782 1.769 4.656 0 6.438l-14.463 14.45h20.446c2.511 0 4.552 2.042 4.552 4.552z" fill="#81f700"/><path d="m148.941 300.343c0 2.523-2.042 4.552-4.552 4.552h-20.446l14.463 14.463c1.769 1.769 1.769 4.656 0 6.438-.897.884-2.055 1.327-3.225 1.327-1.158 0-2.328-.442-3.213-1.327l-14.463-14.463v20.446c0 2.419-1.899 4.409-4.292 4.539v-71.938c2.393.13 4.292 2.107 4.292 4.539v20.433l14.463-14.45c1.769-1.782 4.656-1.782 6.438 0 1.769 1.782 1.769 4.656 0 6.438l-14.463 14.45h20.446c2.511.001 4.552 2.043 4.552 4.553z" fill="#00cc7f"/><path d="m135.103 300.343c0 12.044-9.768 21.811-21.811 21.811h-.078c-12.005-.039-21.733-9.794-21.733-21.811 0-12.018 9.729-21.759 21.733-21.798h.078c12.043-.001 21.811 9.754 21.811 21.798z" fill="#00cc7f"/><path d="m135.103 300.343c0 12.044-9.768 21.811-21.811 21.811h-.078v-43.61h.078c12.043 0 21.811 9.755 21.811 21.799z" fill="#029291"/><path d="m124.229 300.343c0 6.048-4.903 10.938-10.938 10.938h-.078c-5.996-.039-10.86-4.916-10.86-10.938 0-6.009 4.864-10.899 10.86-10.938h.078c6.035 0 10.938 4.903 10.938 10.938z" fill="#81f700"/><path d="m124.229 300.343c0 6.048-4.903 10.938-10.938 10.938h-.078v-21.876h.078c6.035 0 10.938 4.903 10.938 10.938z" fill="#00cc7f"/></g><g><path d="m120.599 382.018c0 2.17-1.756 3.915-3.915 3.915h-17.585l12.439 12.439c1.521 1.521 1.521 4.005 0 5.537-.772.761-1.768 1.141-2.774 1.141-.996 0-2.002-.38-2.763-1.141l-12.439-12.439v17.585c0 2.081-1.633 3.792-3.691 3.904-.078.011-.145.011-.224.011-2.159 0-3.915-1.756-3.915-3.915v-17.585l-12.428 12.439c-.772.761-1.767 1.141-2.774 1.141-.996 0-2.002-.38-2.763-1.141-1.532-1.533-1.532-4.016 0-5.537l12.428-12.439h-17.574c-2.17 0-3.915-1.745-3.915-3.915 0-2.159 1.745-3.915 3.915-3.915h17.574l-12.428-12.428c-1.532-1.532-1.532-4.004 0-5.537 1.533-1.533 4.005-1.533 5.537 0l12.428 12.428v-17.574c0-2.17 1.756-3.915 3.915-3.915.078 0 .145 0 .224.011 2.058.112 3.691 1.812 3.691 3.904v17.574l12.439-12.428c1.521-1.533 4.005-1.533 5.537 0 1.521 1.533 1.521 4.005 0 5.537l-12.439 12.428h17.585c2.159 0 3.915 1.756 3.915 3.915z" fill="#81f700"/><path d="m120.599 382.018c0 2.17-1.756 3.915-3.915 3.915h-17.585l12.439 12.439c1.521 1.521 1.521 4.005 0 5.537-.772.761-1.768 1.141-2.774 1.141-.996 0-2.002-.38-2.763-1.141l-12.439-12.439v17.585c0 2.081-1.633 3.792-3.691 3.904v-61.871c2.058.112 3.691 1.812 3.691 3.904v17.574l12.439-12.428c1.521-1.533 4.005-1.533 5.537 0 1.521 1.533 1.521 4.005 0 5.537l-12.439 12.428h17.585c2.159 0 3.915 1.756 3.915 3.915z" fill="#00cc7f"/><path d="m108.697 382.018c0 10.359-8.401 18.759-18.76 18.759h-.067c-10.325-.034-18.692-8.423-18.692-18.759s8.367-18.715 18.692-18.748h.067c10.359 0 18.76 8.389 18.76 18.748z" fill="#00cc7f"/><path d="m108.697 382.018c0 10.359-8.401 18.759-18.76 18.759h-.067v-37.507h.067c10.359 0 18.76 8.389 18.76 18.748z" fill="#029291"/><path d="m99.345 382.018c0 5.202-4.217 9.408-9.408 9.408h-.067c-5.157-.034-9.34-4.229-9.34-9.408 0-5.168 4.184-9.374 9.34-9.408h.067c5.191 0 9.408 4.217 9.408 9.408z" fill="#81f700"/><path d="m99.345 382.018c0 5.202-4.217 9.408-9.408 9.408h-.067v-18.816h.067c5.191 0 9.408 4.217 9.408 9.408z" fill="#00cc7f"/></g><g><path d="m195.089 338.725c0 1.709-1.383 3.083-3.083 3.083h-13.849l9.797 9.796c1.198 1.198 1.198 3.154 0 4.361-.608.599-1.392.899-2.185.899-.784 0-1.577-.299-2.176-.899l-9.796-9.796v13.849c0 1.639-1.286 2.987-2.907 3.075-.062.009-.114.009-.176.009-1.7 0-3.083-1.383-3.083-3.083v-13.849l-9.788 9.796c-.608.599-1.392.899-2.185.899-.784 0-1.577-.299-2.176-.899-1.207-1.207-1.207-3.163 0-4.361l9.788-9.796h-13.84c-1.709 0-3.083-1.374-3.083-3.083 0-1.7 1.374-3.083 3.083-3.083h13.84l-9.788-9.788c-1.207-1.207-1.207-3.154 0-4.361s3.154-1.207 4.361 0l9.788 9.788v-13.84c0-1.709 1.383-3.083 3.083-3.083.062 0 .115 0 .176.009 1.621.088 2.907 1.427 2.907 3.075v13.84l9.796-9.788c1.198-1.207 3.154-1.207 4.361 0 1.198 1.207 1.198 3.154 0 4.361l-9.797 9.788h13.849c1.7-.003 3.083 1.38 3.083 3.081z" fill="#81f700"/><path d="m195.089 338.725c0 1.709-1.383 3.083-3.083 3.083h-13.849l9.797 9.796c1.198 1.198 1.198 3.154 0 4.361-.608.599-1.392.899-2.185.899-.784 0-1.577-.299-2.176-.899l-9.796-9.796v13.849c0 1.639-1.286 2.987-2.907 3.075v-48.726c1.621.088 2.907 1.427 2.907 3.075v13.84l9.796-9.788c1.198-1.207 3.154-1.207 4.361 0 1.198 1.207 1.198 3.154 0 4.361l-9.797 9.788h13.849c1.7-.002 3.083 1.381 3.083 3.082z" fill="#00cc7f"/><path d="m185.715 338.725c0 8.158-6.616 14.774-14.774 14.774h-.053c-8.131-.027-14.721-6.634-14.721-14.774s6.59-14.738 14.721-14.765h.053c8.158 0 14.774 6.607 14.774 14.765z" fill="#00cc7f"/><path d="m185.715 338.725c0 8.158-6.616 14.774-14.774 14.774h-.053v-29.539h.053c8.158 0 14.774 6.607 14.774 14.765z" fill="#029291"/><path d="m178.35 338.725c0 4.096-3.321 7.409-7.409 7.409h-.053c-4.061-.027-7.356-3.33-7.356-7.409 0-4.07 3.295-7.383 7.356-7.409h.053c4.088 0 7.409 3.321 7.409 7.409z" fill="#81f700"/><path d="m178.35 338.725c0 4.096-3.321 7.409-7.409 7.409h-.053v-14.818h.053c4.088 0 7.409 3.321 7.409 7.409z" fill="#00cc7f"/></g><g><path d="m406.039 306.014c0 2.253-1.823 4.065-4.065 4.065h-18.258l12.916 12.916c1.579 1.58 1.579 4.158 0 5.749-.802.79-1.835 1.185-2.88 1.185-1.034 0-2.079-.395-2.869-1.185l-12.916-12.916v18.259c0 2.16-1.696 3.938-3.833 4.053-.081.012-.151.012-.232.012-2.241 0-4.065-1.823-4.065-4.065v-18.259l-12.904 12.916c-.801.79-1.835 1.185-2.88 1.185-1.034 0-2.079-.395-2.869-1.185-1.591-1.591-1.591-4.17 0-5.749l12.904-12.916h-18.247c-2.253 0-4.065-1.812-4.065-4.065 0-2.242 1.812-4.065 4.065-4.065h18.247l-12.904-12.904c-1.591-1.591-1.591-4.158 0-5.749s4.158-1.591 5.749 0l12.904 12.904v-18.247c0-2.253 1.824-4.065 4.065-4.065.081 0 .151 0 .232.012 2.137.116 3.833 1.882 3.833 4.054v18.246l12.916-12.904c1.58-1.591 4.158-1.591 5.749 0 1.579 1.591 1.579 4.158 0 5.749l-12.916 12.904h18.258c2.241 0 4.065 1.824 4.065 4.065z" fill="#81f700"/><path d="m406.039 306.014c0 2.253-1.823 4.065-4.065 4.065h-18.258l12.916 12.916c1.579 1.58 1.579 4.158 0 5.749-.802.79-1.835 1.185-2.88 1.185-1.034 0-2.079-.395-2.869-1.185l-12.916-12.916v18.259c0 2.16-1.696 3.938-3.833 4.053v-64.241c2.137.116 3.833 1.882 3.833 4.054v18.247l12.916-12.904c1.58-1.591 4.158-1.591 5.749 0 1.579 1.591 1.579 4.158 0 5.749l-12.916 12.904h18.258c2.241 0 4.065 1.824 4.065 4.065z" fill="#00cc7f"/><path d="m393.681 306.014c0 10.755-8.723 19.478-19.478 19.478h-.07c-10.72-.035-19.408-8.746-19.408-19.478s8.688-19.432 19.408-19.466h.07c10.755 0 19.478 8.711 19.478 19.466z" fill="#00cc7f"/><path d="m393.681 306.014c0 10.755-8.723 19.478-19.478 19.478h-.07v-38.944h.07c10.755 0 19.478 8.711 19.478 19.466z" fill="#029291"/><path d="m383.97 306.014c0 5.401-4.379 9.768-9.768 9.768h-.07c-5.354-.035-9.698-4.39-9.698-9.768 0-5.366 4.344-9.733 9.698-9.768h.07c5.39 0 9.768 4.379 9.768 9.768z" fill="#81f700"/><path d="m383.97 306.014c0 5.401-4.379 9.768-9.768 9.768h-.07v-19.536h.07c5.39 0 9.768 4.379 9.768 9.768z" fill="#00cc7f"/></g><g><path d="m453.745 363.095c0 2.131-1.725 3.845-3.845 3.845h-17.268l12.216 12.215c1.494 1.494 1.494 3.933 0 5.438-.758.747-1.736 1.12-2.724 1.12-.978 0-1.966-.374-2.713-1.12l-12.215-12.215v17.269c0 2.043-1.604 3.724-3.625 3.834-.077.011-.143.011-.22.011-2.12 0-3.845-1.725-3.845-3.845v-17.269l-12.206 12.215c-.758.747-1.736 1.12-2.724 1.12-.978 0-1.966-.374-2.713-1.12-1.505-1.505-1.505-3.944 0-5.438l12.204-12.215h-17.257c-2.131 0-3.845-1.714-3.845-3.845 0-2.12 1.714-3.845 3.845-3.845h17.257l-12.204-12.204c-1.505-1.505-1.505-3.932 0-5.438 1.505-1.505 3.933-1.505 5.438 0l12.204 12.204v-17.258c0-2.131 1.725-3.845 3.845-3.845.077 0 .143 0 .22.011 2.021.11 3.625 1.78 3.625 3.834v17.258l12.215-12.204c1.494-1.505 3.933-1.505 5.438 0 1.494 1.505 1.494 3.933 0 5.438l-12.216 12.204h17.268c2.12.001 3.845 1.725 3.845 3.845z" fill="#81f700"/><path d="m453.745 363.095c0 2.131-1.725 3.845-3.845 3.845h-17.268l12.216 12.215c1.494 1.494 1.494 3.933 0 5.438-.758.747-1.736 1.12-2.724 1.12-.978 0-1.966-.374-2.713-1.12l-12.215-12.215v17.269c0 2.043-1.604 3.724-3.625 3.834v-60.758c2.021.11 3.625 1.78 3.625 3.834v17.258l12.215-12.204c1.494-1.505 3.933-1.505 5.438 0 1.494 1.505 1.494 3.933 0 5.438l-12.216 12.204h17.267c2.12-.002 3.845 1.722 3.845 3.842z" fill="#00cc7f"/><path d="m442.057 363.095c0 10.172-8.25 18.422-18.422 18.422h-.066c-10.139-.033-18.356-8.272-18.356-18.422s8.217-18.378 18.356-18.411h.066c10.172.001 18.422 8.239 18.422 18.411z" fill="#00cc7f"/><path d="m442.057 363.095c0 10.172-8.25 18.422-18.422 18.422h-.066v-36.833h.066c10.172.001 18.422 8.239 18.422 18.411z" fill="#029291"/><path d="m432.873 363.095c0 5.108-4.141 9.238-9.238 9.238h-.066c-5.064-.033-9.172-4.152-9.172-9.238 0-5.075 4.108-9.205 9.172-9.238h.066c5.097 0 9.238 4.141 9.238 9.238z" fill="#81f700"/><path d="m432.873 363.095c0 5.108-4.141 9.238-9.238 9.238h-.066v-18.477h.066c5.097.001 9.238 4.142 9.238 9.239z" fill="#00cc7f"/></g><g><path d="m372.343 365.041c0 1.784-1.444 3.219-3.219 3.219h-14.459l10.228 10.228c1.251 1.251 1.251 3.293 0 4.553-.635.625-1.453.938-2.281.938-.819 0-1.646-.313-2.272-.938l-10.228-10.228v14.459c0 1.711-1.343 3.118-3.035 3.21-.064.009-.12.009-.184.009-1.775 0-3.219-1.444-3.219-3.219v-14.459l-10.219 10.228c-.635.625-1.453.938-2.281.938-.819 0-1.646-.313-2.272-.938-1.26-1.26-1.26-3.302 0-4.553l10.219-10.228h-14.45c-1.784 0-3.219-1.435-3.219-3.219 0-1.775 1.435-3.219 3.219-3.219h14.45l-10.219-10.219c-1.26-1.26-1.26-3.293 0-4.553s3.293-1.26 4.553 0l10.219 10.219v-14.45c0-1.784 1.444-3.219 3.219-3.219.064 0 .12 0 .184.009 1.693.092 3.035 1.49 3.035 3.21v14.45l10.228-10.219c1.251-1.26 3.293-1.26 4.553 0 1.251 1.26 1.251 3.293 0 4.553l-10.228 10.219h14.459c1.775 0 3.219 1.444 3.219 3.219z" fill="#81f700"/><path d="m372.343 365.041c0 1.784-1.444 3.219-3.219 3.219h-14.459l10.228 10.228c1.251 1.251 1.251 3.293 0 4.553-.635.625-1.453.938-2.281.938-.819 0-1.646-.313-2.272-.938l-10.228-10.228v14.459c0 1.711-1.343 3.118-3.035 3.21v-50.873c1.693.092 3.035 1.49 3.035 3.21v14.45l10.228-10.219c1.251-1.26 3.293-1.26 4.553 0 1.251 1.26 1.251 3.293 0 4.553l-10.228 10.219h14.459c1.775 0 3.219 1.444 3.219 3.219z" fill="#00cc7f"/><path d="m362.556 365.041c0 8.517-6.908 15.425-15.425 15.425h-.055c-8.49-.028-15.37-6.926-15.37-15.425s6.88-15.388 15.37-15.415h.055c8.518-.001 15.425 6.898 15.425 15.415z" fill="#00cc7f"/><path d="m362.556 365.041c0 8.517-6.908 15.425-15.425 15.425h-.055v-30.84h.055c8.518-.001 15.425 6.898 15.425 15.415z" fill="#029291"/><path d="m354.867 365.041c0 4.277-3.467 7.735-7.735 7.735h-.055c-4.24-.028-7.68-3.477-7.68-7.735 0-4.25 3.44-7.708 7.68-7.735h.055c4.267-.001 7.735 3.467 7.735 7.735z" fill="#81f700"/><path d="m354.867 365.041c0 4.277-3.467 7.735-7.735 7.735h-.055v-15.471h.055c4.267 0 7.735 3.468 7.735 7.736z" fill="#00cc7f"/></g></g><path d="m512 256c0 141.38-114.62 256-256 256s-256-114.62-256-256c0-46.22 12.25-89.57 33.68-127 44.12-77.07 127.16-129 222.32-129s178.2 51.93 222.32 129c21.43 37.43 33.68 80.78 33.68 127z" fill="none"/></g></svg>