<svg height="512pt" viewBox="-45 0 511 512" width="512pt" xmlns="http://www.w3.org/2000/svg"><path d="m22.148438 35.128906v37.039063l5 162.128906-5 205.535156v37.039063c0 19.402344 15.726562 35.128906 35.128906 35.128906h245.832031c19.398437 0 35.125-15.726562 35.125-35.128906v-37.039063l-8-193.410156 8-174.253906v-37.039063c.003906-19.402344-15.726563-35.128906-35.125-35.128906h-245.832031c-19.398438 0-35.128906 15.726562-35.128906 35.128906zm0 0" fill="#6a7193"/><path d="m303.109375 0h-23.695313c19.402344 0 35.128907 15.726562 35.128907 35.128906v441.742188c0 19.402344-15.726563 35.128906-35.128907 35.128906h23.695313c19.402344 0 35.128906-15.726562 35.128906-35.128906v-37.039063l-6-194.648437 6-173.015625v-37.039063c0-19.402344-15.730469-35.128906-35.128906-35.128906zm0 0" fill="#575b7a"/><path d="m22.148438 72.167969h316.085937v367.664062h-316.085937zm0 0" fill="#c8e7f7"/><path d="m314.542969 72.167969h23.691406v367.664062h-23.691406zm0 0" fill="#8cbcd6"/><path d="m8.910156 177.878906h13.238282v-63.652344h-13.238282c-4.644531 0-8.410156 3.765626-8.410156 8.410157v46.832031c0 4.644531 3.765625 8.410156 8.410156 8.410156zm0 0" fill="#8cbafa"/><path d="m8.910156 272.113281h13.238282v-63.652343h-13.238282c-4.644531 0-8.410156 3.765624-8.410156 8.410156v46.832031c0 4.644531 3.765625 8.410156 8.410156 8.410156zm0 0" fill="#8cbafa"/><path d="m196.628906 475.914062c0 9.078126-7.359375 16.433594-16.4375 16.433594-9.074218 0-16.433594-7.355468-16.433594-16.433594 0-9.074218 7.359376-16.433593 16.433594-16.433593 9.078125 0 16.4375 7.359375 16.4375 16.433593zm0 0" fill="#252d4c"/><path d="m203.742188 43.585938h-47.097657c-4.140625 0-7.5-3.359376-7.5-7.5 0-4.144532 3.359375-7.5 7.5-7.5h47.097657c4.140624 0 7.5 3.355468 7.5 7.5 0 4.140624-3.359376 7.5-7.5 7.5zm0 0" fill="#252d4c"/><path d="m396 114.226562h-160.222656c-13.988282 0-25.328125 11.339844-25.328125 25.328126v160.222656c0 13.988281 11.339843 25.328125 25.328125 25.328125h10.148437c5.285157 0 9.566407 4.28125 9.566407 9.566406v30.0625c0 4.691406 5.988281 6.65625 8.769531 2.882813l28.472656-38.621094c1.800781-2.445313 4.660156-3.890625 7.699219-3.890625h95.566406c13.988281 0 25.328125-11.339844 25.328125-25.328125v-160.222656c0-13.988282-11.339844-25.328126-25.328125-25.328126zm0 0" fill="#ffcd34"/><g fill="#252d4c"><path d="m290.449219 205.035156h-34.957031c-4.140626 0-7.5-3.359375-7.5-7.5v-34.953125c0-4.144531 3.359374-7.5 7.5-7.5h34.957031c4.140625 0 7.5 3.355469 7.5 7.5v34.953125c0 4.140625-3.359375 7.5-7.5 7.5zm-27.457031-15h19.957031v-19.953125h-19.957031zm0 0"/><path d="m376.28125 205.035156h-34.953125c-4.144531 0-7.5-3.359375-7.5-7.5v-34.953125c0-4.144531 3.355469-7.5 7.5-7.5h34.953125c4.140625 0 7.5 3.355469 7.5 7.5v34.953125c0 4.140625-3.359375 7.5-7.5 7.5zm-27.453125-15h19.953125v-19.953125h-19.953125zm0 0"/><path d="m290.449219 284.25h-34.957031c-4.140626 0-7.5-3.359375-7.5-7.5v-34.953125c0-4.144531 3.359374-7.5 7.5-7.5h34.957031c4.140625 0 7.5 3.355469 7.5 7.5v34.953125c0 4.140625-3.359375 7.5-7.5 7.5zm-27.457031-15h19.957031v-19.953125h-19.957031zm0 0"/><path d="m376.28125 284.25h-17.476562c-4.144532 0-7.5-3.359375-7.5-7.5s3.355468-7.5 7.5-7.5h9.976562v-27.453125c0-4.144531 3.359375-7.5 7.5-7.5s7.5 3.355469 7.5 7.5v34.953125c0 4.140625-3.359375 7.5-7.5 7.5zm0 0"/><path d="m346.503906 254.878906c-.082031 0-.160156 0-.242187-.003906l-28.957031-.90625c-4.046876-.128906-7.265626-3.445312-7.265626-7.496094v-19.167968c0-4.140626 3.359376-7.5 7.5-7.5 4.144532 0 7.5 3.359374 7.5 7.5v11.898437l21.691407.683594c4.140625.128906 7.390625 3.589843 7.261719 7.730469-.125 4.058593-3.457032 7.261718-7.488282 7.261718zm0 0"/><path d="m317.542969 202.933594c-4.144531 0-7.5-3.359375-7.5-7.5v-3.222656c0-4.140626 3.355469-7.5 7.5-7.5 4.140625 0 7.5 3.359374 7.5 7.5v3.222656c0 4.140625-3.359375 7.5-7.5 7.5zm0 0"/><path d="m329.867188 284.25h-2.164063c-4.140625 0-7.5-3.359375-7.5-7.5s3.359375-7.5 7.5-7.5h2.164063c4.144531 0 7.5 3.359375 7.5 7.5s-3.355469 7.5-7.5 7.5zm0 0"/><path d="m349.328125 230.878906h-5.941406c-4.140625 0-7.5-3.359375-7.5-7.5 0-4.144531 3.359375-7.5 7.5-7.5h5.941406c4.144531 0 7.5 3.355469 7.5 7.5 0 4.140625-3.355469 7.5-7.5 7.5zm0 0"/></g></svg>